<svg id="svg" version="1.1" xmlns="http://www.w3.org/2000/svg" xmlns:xlink="http://www.w3.org/1999/xlink" width="400" height="300" viewBox="0, 0, 400, 300">
   <g id="svgg">
    <path id="path0" d="M225.606 21.683 C 223.473 21.869,221.475 22.340,219.283 23.172 C 214.998 24.797,196.992 33.397,190.657 36.843 C 184.731 40.067,179.156 43.183,175.894 45.094 C 174.118 46.134,170.796 47.951,168.512 49.132 C 162.750 52.112,145.807 61.458,135.179 67.521 C 130.294 70.307,125.156 73.192,123.760 73.931 C 119.455 76.209,115.487 78.561,108.766 82.814 C 105.213 85.063,100.646 87.838,98.616 88.981 C 96.586 90.125,92.152 92.864,88.762 95.069 C 85.372 97.273,81.131 100.012,79.336 101.153 C 72.784 105.323,69.866 107.804,61.111 116.648 C 51.765 126.088,49.642 130.040,49.880 137.553 C 50.093 144.240,53.050 147.606,60.367 149.490 C 66.482 151.064,80.727 150.899,91.811 149.125 C 97.090 148.280,113.075 144.929,119.262 143.370 C 120.467 143.066,129.187 141.354,138.639 139.564 C 148.091 137.775,159.562 135.598,164.129 134.728 C 172.365 133.158,176.689 132.412,185.582 131.025 C 191.625 130.083,225.222 123.949,231.661 122.612 C 238.699 121.152,258.558 117.573,263.668 116.844 C 266.015 116.510,270.531 115.728,273.702 115.107 C 281.888 113.504,289.120 112.435,301.831 110.951 C 305.121 110.567,309.845 109.948,312.327 109.576 C 318.923 108.587,329.638 107.230,330.073 107.328 C 330.280 107.375,327.803 108.273,324.567 109.324 C 317.920 111.484,299.597 118.272,289.043 122.486 C 285.173 124.031,276.737 127.211,270.295 129.552 C 250.206 136.856,217.242 150.209,203.460 156.627 C 195.540 160.315,182.990 165.907,178.875 167.581 C 170.962 170.799,168.329 171.916,164.129 173.831 C 149.967 180.289,127.396 191.682,106.228 203.058 C 102.676 204.967,99.095 206.892,98.270 207.334 C 94.558 209.327,84.017 215.441,73.818 221.518 C 67.828 225.086,56.820 232.181,46.343 239.225 C 44.110 240.727,39.543 243.633,36.193 245.684 C 19.354 255.994,13.277 261.181,10.863 267.306 C 4.685 282.978,21.912 296.731,36.102 287.455 C 36.610 287.123,37.639 286.540,38.389 286.159 C 40.063 285.310,42.066 283.504,43.271 281.757 C 44.135 280.504,44.540 280.225,52.364 275.487 C 65.867 267.311,68.885 265.564,73.472 263.268 C 81.418 259.291,85.630 256.946,91.119 253.442 C 116.375 237.322,150.181 217.437,190.196 195.166 C 195.658 192.126,211.488 184.047,219.493 180.214 C 222.411 178.817,227.549 176.353,230.911 174.739 C 237.591 171.533,238.980 170.891,249.293 166.239 C 253.122 164.511,259.039 161.810,262.441 160.237 C 265.844 158.664,273.007 155.497,278.359 153.200 C 283.712 150.903,291.537 147.460,295.748 145.549 C 299.960 143.638,305.857 141.031,308.854 139.756 C 318.438 135.676,327.783 131.524,332.411 129.290 C 334.885 128.095,338.985 126.221,341.522 125.125 C 347.317 122.622,354.013 119.250,356.846 117.409 C 359.339 115.790,361.371 114.738,365.740 112.805 C 372.694 109.728,376.066 107.667,378.723 104.870 C 386.090 97.114,382.693 86.232,372.088 83.617 C 369.678 83.023,358.780 82.679,352.826 83.009 C 337.259 83.873,332.322 84.221,319.608 85.354 C 315.421 85.726,310.127 86.191,307.843 86.386 C 305.559 86.580,302.497 86.894,301.038 87.082 C 299.579 87.270,295.278 87.788,291.481 88.234 C 278.525 89.755,263.788 91.976,256.055 93.572 C 252.059 94.397,243.754 96.094,237.601 97.342 C 217.545 101.411,189.916 107.356,183.021 109.088 C 181.004 109.594,176.811 110.592,173.702 111.306 C 160.323 114.377,146.537 118.091,126.107 124.128 C 117.212 126.756,115.630 127.151,104.037 129.639 C 87.311 133.229,81.752 133.977,73.935 133.690 C 71.525 133.601,69.505 133.481,69.447 133.422 C 69.388 133.363,72.450 130.199,76.250 126.391 C 85.971 116.649,87.315 115.655,112.918 99.261 C 123.116 92.730,127.452 90.134,132.872 87.309 C 135.600 85.887,141.569 82.570,146.136 79.936 C 156.859 73.753,167.410 67.927,179.292 61.625 C 184.528 58.849,189.380 56.241,190.074 55.831 C 190.768 55.420,192.896 54.305,194.803 53.352 C 196.710 52.399,200.606 50.365,203.460 48.833 C 209.115 45.798,216.364 42.219,220.508 40.417 L 223.138 39.273 224.199 39.756 C 228.246 41.602,233.866 39.097,235.505 34.718 C 238.182 27.562,233.212 21.019,225.606 21.683 " stroke="none" fill="current" fill-rule="evenodd"></path>
   </g>
</svg>